<mxfile host="app.diagrams.net" modified="2023-06-09T23:44:24.829Z" agent="Mozilla/5.0 (X11; Linux x86_64) AppleWebKit/537.36 (KHTML, like Gecko) Chrome/114.0.0.0 Safari/537.36" etag="aYldK-9vHUVcbrR7qt9-" version="21.3.7" type="device">
  <diagram name="Page-1" id="9uEI_o1jSFQKAdZgtg52">
    <mxGraphModel dx="1362" dy="774" grid="1" gridSize="10" guides="1" tooltips="1" connect="1" arrows="1" fold="1" page="1" pageScale="1" pageWidth="850" pageHeight="1100" math="0" shadow="0">
      <root>
        <mxCell id="0" />
        <mxCell id="1" parent="0" />
        <mxCell id="X7CRMqkfVBuR3V3xRcWx-6" value="&lt;b&gt;&lt;font style=&quot;font-size: 20px;&quot;&gt;IP&lt;/font&gt;&lt;/b&gt;" style="shape=ext;double=1;rounded=1;whiteSpace=wrap;html=1;" parent="1" vertex="1">
          <mxGeometry x="130" y="40" width="80" height="40" as="geometry" />
        </mxCell>
        <mxCell id="X7CRMqkfVBuR3V3xRcWx-8" value="&lt;b&gt;&lt;font style=&quot;font-size: 20px;&quot;&gt;IP&lt;/font&gt;&lt;/b&gt;" style="shape=ext;double=1;rounded=1;whiteSpace=wrap;html=1;" parent="1" vertex="1">
          <mxGeometry x="130" y="100" width="80" height="40" as="geometry" />
        </mxCell>
        <mxCell id="X7CRMqkfVBuR3V3xRcWx-9" value="&lt;b&gt;&lt;font style=&quot;font-size: 20px;&quot;&gt;IP&lt;/font&gt;&lt;/b&gt;" style="shape=ext;double=1;rounded=1;whiteSpace=wrap;html=1;" parent="1" vertex="1">
          <mxGeometry x="130" y="160" width="80" height="40" as="geometry" />
        </mxCell>
        <mxCell id="X7CRMqkfVBuR3V3xRcWx-10" value="&lt;b&gt;&lt;font style=&quot;font-size: 20px;&quot;&gt;IP&lt;/font&gt;&lt;/b&gt;" style="shape=ext;double=1;rounded=1;whiteSpace=wrap;html=1;" parent="1" vertex="1">
          <mxGeometry x="230" y="240" width="80" height="40" as="geometry" />
        </mxCell>
        <mxCell id="X7CRMqkfVBuR3V3xRcWx-24" value="&lt;b&gt;&lt;font style=&quot;font-size: 20px;&quot;&gt;IP&lt;/font&gt;&lt;/b&gt;" style="shape=ext;double=1;rounded=1;whiteSpace=wrap;html=1;" parent="1" vertex="1">
          <mxGeometry x="330" y="240" width="80" height="40" as="geometry" />
        </mxCell>
        <mxCell id="X7CRMqkfVBuR3V3xRcWx-25" value="&lt;b&gt;&lt;font style=&quot;font-size: 20px;&quot;&gt;IP&lt;/font&gt;&lt;/b&gt;" style="shape=ext;double=1;rounded=1;whiteSpace=wrap;html=1;" parent="1" vertex="1">
          <mxGeometry x="430" y="240" width="80" height="40" as="geometry" />
        </mxCell>
        <mxCell id="X7CRMqkfVBuR3V3xRcWx-26" value="&lt;b&gt;&lt;font style=&quot;font-size: 20px;&quot;&gt;IP&lt;/font&gt;&lt;/b&gt;" style="shape=ext;double=1;rounded=1;whiteSpace=wrap;html=1;" parent="1" vertex="1">
          <mxGeometry x="530" y="240" width="80" height="40" as="geometry" />
        </mxCell>
        <mxCell id="X7CRMqkfVBuR3V3xRcWx-27" value="" style="rounded=1;whiteSpace=wrap;html=1;" parent="1" vertex="1">
          <mxGeometry x="230" y="20" width="380" height="200" as="geometry" />
        </mxCell>
        <mxCell id="X7CRMqkfVBuR3V3xRcWx-41" value="" style="endArrow=none;html=1;rounded=0;exitX=1;exitY=0.5;exitDx=0;exitDy=0;entryX=0;entryY=0.5;entryDx=0;entryDy=0;" parent="1" source="X7CRMqkfVBuR3V3xRcWx-55" target="X7CRMqkfVBuR3V3xRcWx-57" edge="1">
          <mxGeometry width="50" height="50" relative="1" as="geometry">
            <mxPoint x="300" y="290" as="sourcePoint" />
            <mxPoint x="545" y="60" as="targetPoint" />
          </mxGeometry>
        </mxCell>
        <mxCell id="X7CRMqkfVBuR3V3xRcWx-42" value="" style="endArrow=none;html=1;rounded=0;exitX=1;exitY=0.5;exitDx=0;exitDy=0;entryX=0;entryY=0.5;entryDx=0;entryDy=0;" parent="1" target="X7CRMqkfVBuR3V3xRcWx-61" edge="1">
          <mxGeometry width="50" height="50" relative="1" as="geometry">
            <mxPoint x="210" y="119.58" as="sourcePoint" />
            <mxPoint x="545" y="119.58" as="targetPoint" />
          </mxGeometry>
        </mxCell>
        <mxCell id="X7CRMqkfVBuR3V3xRcWx-43" value="" style="endArrow=none;html=1;rounded=0;exitX=1;exitY=0.5;exitDx=0;exitDy=0;entryX=0;entryY=0.5;entryDx=0;entryDy=0;" parent="1" target="X7CRMqkfVBuR3V3xRcWx-65" edge="1">
          <mxGeometry width="50" height="50" relative="1" as="geometry">
            <mxPoint x="210" y="179.57999999999998" as="sourcePoint" />
            <mxPoint x="545" y="179.57999999999998" as="targetPoint" />
          </mxGeometry>
        </mxCell>
        <mxCell id="X7CRMqkfVBuR3V3xRcWx-44" value="" style="endArrow=none;html=1;rounded=0;exitX=0.5;exitY=0;exitDx=0;exitDy=0;entryX=0.5;entryY=1;entryDx=0;entryDy=0;" parent="1" source="X7CRMqkfVBuR3V3xRcWx-10" target="X7CRMqkfVBuR3V3xRcWx-29" edge="1">
          <mxGeometry width="50" height="50" relative="1" as="geometry">
            <mxPoint x="300" y="290" as="sourcePoint" />
            <mxPoint x="350" y="240" as="targetPoint" />
          </mxGeometry>
        </mxCell>
        <mxCell id="X7CRMqkfVBuR3V3xRcWx-45" value="" style="endArrow=none;html=1;rounded=0;exitX=0.5;exitY=0;exitDx=0;exitDy=0;entryX=0.5;entryY=1;entryDx=0;entryDy=0;" parent="1" target="X7CRMqkfVBuR3V3xRcWx-53" edge="1">
          <mxGeometry width="50" height="50" relative="1" as="geometry">
            <mxPoint x="369.58" y="240" as="sourcePoint" />
            <mxPoint x="369.58" y="85" as="targetPoint" />
          </mxGeometry>
        </mxCell>
        <mxCell id="X7CRMqkfVBuR3V3xRcWx-46" value="" style="endArrow=none;html=1;rounded=0;exitX=0.5;exitY=0;exitDx=0;exitDy=0;entryX=0.5;entryY=1;entryDx=0;entryDy=0;" parent="1" target="X7CRMqkfVBuR3V3xRcWx-55" edge="1">
          <mxGeometry width="50" height="50" relative="1" as="geometry">
            <mxPoint x="469.58" y="240" as="sourcePoint" />
            <mxPoint x="469.58" y="85" as="targetPoint" />
          </mxGeometry>
        </mxCell>
        <mxCell id="X7CRMqkfVBuR3V3xRcWx-47" value="" style="endArrow=none;html=1;rounded=0;exitX=0.5;exitY=0;exitDx=0;exitDy=0;entryX=0.5;entryY=1;entryDx=0;entryDy=0;" parent="1" target="X7CRMqkfVBuR3V3xRcWx-57" edge="1">
          <mxGeometry width="50" height="50" relative="1" as="geometry">
            <mxPoint x="569.5799999999999" y="240" as="sourcePoint" />
            <mxPoint x="569.5799999999999" y="85" as="targetPoint" />
          </mxGeometry>
        </mxCell>
        <mxCell id="X7CRMqkfVBuR3V3xRcWx-52" value="" style="endArrow=none;html=1;rounded=0;exitX=1;exitY=0.5;exitDx=0;exitDy=0;entryX=0;entryY=0.5;entryDx=0;entryDy=0;" parent="1" source="X7CRMqkfVBuR3V3xRcWx-6" target="X7CRMqkfVBuR3V3xRcWx-29" edge="1">
          <mxGeometry width="50" height="50" relative="1" as="geometry">
            <mxPoint x="210" y="60" as="sourcePoint" />
            <mxPoint x="545" y="60" as="targetPoint" />
          </mxGeometry>
        </mxCell>
        <mxCell id="X7CRMqkfVBuR3V3xRcWx-29" value="" style="ellipse;shape=doubleEllipse;whiteSpace=wrap;html=1;aspect=fixed;fillColor=#bac8d3;strokeColor=#23445d;" parent="1" vertex="1">
          <mxGeometry x="261.25" y="51.25" width="17.5" height="17.5" as="geometry" />
        </mxCell>
        <mxCell id="X7CRMqkfVBuR3V3xRcWx-54" value="" style="endArrow=none;html=1;rounded=0;exitX=1;exitY=0.5;exitDx=0;exitDy=0;entryX=0;entryY=0.5;entryDx=0;entryDy=0;" parent="1" source="X7CRMqkfVBuR3V3xRcWx-29" target="X7CRMqkfVBuR3V3xRcWx-53" edge="1">
          <mxGeometry width="50" height="50" relative="1" as="geometry">
            <mxPoint x="279" y="60" as="sourcePoint" />
            <mxPoint x="545" y="60" as="targetPoint" />
          </mxGeometry>
        </mxCell>
        <mxCell id="X7CRMqkfVBuR3V3xRcWx-53" value="" style="ellipse;shape=doubleEllipse;whiteSpace=wrap;html=1;aspect=fixed;fillColor=#bac8d3;strokeColor=#23445d;" parent="1" vertex="1">
          <mxGeometry x="361.25" y="51.25" width="17.5" height="17.5" as="geometry" />
        </mxCell>
        <mxCell id="X7CRMqkfVBuR3V3xRcWx-56" value="" style="endArrow=none;html=1;rounded=0;exitX=1;exitY=0.5;exitDx=0;exitDy=0;entryX=0;entryY=0.5;entryDx=0;entryDy=0;" parent="1" source="X7CRMqkfVBuR3V3xRcWx-53" target="X7CRMqkfVBuR3V3xRcWx-55" edge="1">
          <mxGeometry width="50" height="50" relative="1" as="geometry">
            <mxPoint x="379" y="60" as="sourcePoint" />
            <mxPoint x="545" y="60" as="targetPoint" />
          </mxGeometry>
        </mxCell>
        <mxCell id="X7CRMqkfVBuR3V3xRcWx-55" value="" style="ellipse;shape=doubleEllipse;whiteSpace=wrap;html=1;aspect=fixed;fillColor=#bac8d3;strokeColor=#23445d;" parent="1" vertex="1">
          <mxGeometry x="461.25" y="51.25" width="17.5" height="17.5" as="geometry" />
        </mxCell>
        <mxCell id="X7CRMqkfVBuR3V3xRcWx-57" value="" style="ellipse;shape=doubleEllipse;whiteSpace=wrap;html=1;aspect=fixed;fillColor=#bac8d3;strokeColor=#23445d;" parent="1" vertex="1">
          <mxGeometry x="561.25" y="51.25" width="17.5" height="17.5" as="geometry" />
        </mxCell>
        <mxCell id="X7CRMqkfVBuR3V3xRcWx-58" value="" style="ellipse;shape=doubleEllipse;whiteSpace=wrap;html=1;aspect=fixed;fillColor=#bac8d3;strokeColor=#23445d;" parent="1" vertex="1">
          <mxGeometry x="261.25" y="110" width="17.5" height="17.5" as="geometry" />
        </mxCell>
        <mxCell id="X7CRMqkfVBuR3V3xRcWx-59" value="" style="ellipse;shape=doubleEllipse;whiteSpace=wrap;html=1;aspect=fixed;fillColor=#bac8d3;strokeColor=#23445d;" parent="1" vertex="1">
          <mxGeometry x="361.25" y="110" width="17.5" height="17.5" as="geometry" />
        </mxCell>
        <mxCell id="X7CRMqkfVBuR3V3xRcWx-60" value="" style="ellipse;shape=doubleEllipse;whiteSpace=wrap;html=1;aspect=fixed;fillColor=#bac8d3;strokeColor=#23445d;" parent="1" vertex="1">
          <mxGeometry x="461.25" y="110" width="17.5" height="17.5" as="geometry" />
        </mxCell>
        <mxCell id="X7CRMqkfVBuR3V3xRcWx-61" value="" style="ellipse;shape=doubleEllipse;whiteSpace=wrap;html=1;aspect=fixed;fillColor=#bac8d3;strokeColor=#23445d;" parent="1" vertex="1">
          <mxGeometry x="561.25" y="110" width="17.5" height="17.5" as="geometry" />
        </mxCell>
        <mxCell id="X7CRMqkfVBuR3V3xRcWx-62" value="" style="ellipse;shape=doubleEllipse;whiteSpace=wrap;html=1;aspect=fixed;fillColor=#bac8d3;strokeColor=#23445d;" parent="1" vertex="1">
          <mxGeometry x="261.25" y="171.25" width="17.5" height="17.5" as="geometry" />
        </mxCell>
        <mxCell id="X7CRMqkfVBuR3V3xRcWx-63" value="" style="ellipse;shape=doubleEllipse;whiteSpace=wrap;html=1;aspect=fixed;fillColor=#bac8d3;strokeColor=#23445d;" parent="1" vertex="1">
          <mxGeometry x="361.25" y="171.25" width="17.5" height="17.5" as="geometry" />
        </mxCell>
        <mxCell id="X7CRMqkfVBuR3V3xRcWx-64" value="" style="ellipse;shape=doubleEllipse;whiteSpace=wrap;html=1;aspect=fixed;fillColor=#bac8d3;strokeColor=#23445d;" parent="1" vertex="1">
          <mxGeometry x="461.25" y="171.25" width="17.5" height="17.5" as="geometry" />
        </mxCell>
        <mxCell id="X7CRMqkfVBuR3V3xRcWx-65" value="" style="ellipse;shape=doubleEllipse;whiteSpace=wrap;html=1;aspect=fixed;fillColor=#bac8d3;strokeColor=#23445d;" parent="1" vertex="1">
          <mxGeometry x="561.25" y="171.25" width="17.5" height="17.5" as="geometry" />
        </mxCell>
        <mxCell id="Sb33ZBea8a0-s1IT7xl2-2" value="&lt;div style=&quot;&quot;&gt;&lt;/div&gt;&lt;b style=&quot;border-color: var(--border-color); text-align: center;&quot;&gt;&lt;div style=&quot;text-align: left;&quot;&gt;&lt;b style=&quot;background-color: initial; border-color: var(--border-color);&quot;&gt;&lt;font style=&quot;border-color: var(--border-color); font-size: 15px;&quot;&gt;&amp;nbsp; Subordinates&lt;/font&gt;&lt;/b&gt;&lt;/div&gt;&lt;/b&gt;" style="rounded=1;whiteSpace=wrap;html=1;fillColor=none;dashed=1;align=left;" vertex="1" parent="1">
          <mxGeometry x="100" y="230" width="520" height="60" as="geometry" />
        </mxCell>
        <mxCell id="Sb33ZBea8a0-s1IT7xl2-3" value="&lt;div style=&quot;&quot;&gt;&lt;/div&gt;&lt;b style=&quot;border-color: var(--border-color); text-align: center;&quot;&gt;&lt;div style=&quot;text-align: left; font-size: 15px;&quot;&gt;&amp;nbsp; M&lt;/div&gt;&lt;div style=&quot;text-align: left; font-size: 15px;&quot;&gt;&amp;nbsp; a&lt;/div&gt;&lt;div style=&quot;text-align: left; font-size: 15px;&quot;&gt;&amp;nbsp; n&lt;/div&gt;&lt;div style=&quot;text-align: left; font-size: 15px;&quot;&gt;&amp;nbsp; a&lt;/div&gt;&lt;div style=&quot;text-align: left; font-size: 15px;&quot;&gt;&amp;nbsp; g&lt;/div&gt;&lt;div style=&quot;text-align: left; font-size: 15px;&quot;&gt;&amp;nbsp; e&lt;/div&gt;&lt;div style=&quot;text-align: left; font-size: 15px;&quot;&gt;&amp;nbsp; r&lt;/div&gt;&lt;div style=&quot;text-align: left; font-size: 15px;&quot;&gt;&amp;nbsp; s&lt;/div&gt;&lt;/b&gt;" style="rounded=1;whiteSpace=wrap;html=1;fillColor=none;dashed=1;align=left;" vertex="1" parent="1">
          <mxGeometry x="100" y="30" width="120" height="180" as="geometry" />
        </mxCell>
      </root>
    </mxGraphModel>
  </diagram>
</mxfile>
